# xmcd CD database file
#
# Track frame offsets:
#	150
#	31280
#	51323
#	67413
#	91645
#	107303
#	151780
#	177526
#	227855
#	256036
#	281394
#
# Disc length: 4148 seconds
#
# Revision: 0
# Processed by: cddbd v1.4PL0 Copyright (c) Steve Scherf et al.
# Submitted via: CDex 1.50Beta7
#
DISCID=8910320b
DTITLE=Big George And The Business - The Legend So Far
DYEAR=1998
DGENRE=Blues
TTITLE0=So Many Roads
TTITLE1=Raglan Road
TTITLE2=All Fools Day
TTITLE3=When The Gypsy Casts Her Spell
TTITLE4=Victoria
TTITLE5=Jesus Gonna Make It Alright
TTITLE6=Tower Hill Road
TTITLE7=Ain't Nothing Left
TTITLE8=Let My Love
TTITLE9=Tonight The Bottle Let Me Down
TTITLE10=Can't Always Get What You Want
EXTD=YEAR: 1998
EXTT0=
EXTT1=
EXTT2=
EXTT3=
EXTT4=
EXTT5=
EXTT6=
EXTT7=
EXTT8=
EXTT9=
EXTT10=
PLAYORDER=
